<mxfile host="app.diagrams.net" modified="2022-12-03T04:15:33.151Z" agent="5.0 (Windows NT 10.0; Win64; x64) AppleWebKit/537.36 (KHTML, like Gecko) Chrome/108.0.0.0 Safari/537.36" etag="Gfy_heW5AnRRW2C0S20D" version="20.6.0" type="github">
  <diagram id="9HLhW9o5Pn7bnSsW2eLf" name="Page-1">
    <mxGraphModel dx="1038" dy="621" grid="1" gridSize="10" guides="1" tooltips="1" connect="1" arrows="1" fold="1" page="1" pageScale="1" pageWidth="850" pageHeight="1100" math="0" shadow="0">
      <root>
        <mxCell id="0" />
        <mxCell id="1" parent="0" />
        <mxCell id="tW3wjYKGY_-DUdyRMUnM-29" style="edgeStyle=orthogonalEdgeStyle;rounded=0;orthogonalLoop=1;jettySize=auto;html=1;exitX=0.5;exitY=1;exitDx=0;exitDy=0;entryX=0.5;entryY=0;entryDx=0;entryDy=0;" parent="1" source="5jKje8F0iwKBfb8MLztT-3" target="tW3wjYKGY_-DUdyRMUnM-2" edge="1">
          <mxGeometry relative="1" as="geometry" />
        </mxCell>
        <mxCell id="5jKje8F0iwKBfb8MLztT-3" value="Start" style="ellipse;whiteSpace=wrap;html=1;" parent="1" vertex="1">
          <mxGeometry x="132.87" y="120" width="120" height="50" as="geometry" />
        </mxCell>
        <mxCell id="5jKje8F0iwKBfb8MLztT-16" value="End" style="ellipse;whiteSpace=wrap;html=1;" parent="1" vertex="1">
          <mxGeometry x="622.5" y="420" width="120" height="50" as="geometry" />
        </mxCell>
        <mxCell id="5jKje8F0iwKBfb8MLztT-20" value="&lt;span style=&quot;font-size:11.0pt;line-height:&lt;br/&gt;107%;font-family:&amp;quot;Calibri&amp;quot;,sans-serif;mso-ascii-theme-font:minor-latin;&lt;br/&gt;mso-fareast-font-family:Calibri;mso-fareast-theme-font:minor-latin;mso-hansi-theme-font:&lt;br/&gt;minor-latin;mso-bidi-font-family:Arial;mso-bidi-theme-font:minor-bidi;&lt;br/&gt;mso-ansi-language:EN-US;mso-fareast-language:EN-US;mso-bidi-language:AR-SA&quot; lang=&quot;EN-US&quot;&gt;Designing&lt;br/&gt;functional architecture&lt;/span&gt;" style="rounded=0;whiteSpace=wrap;html=1;" parent="1" vertex="1">
          <mxGeometry x="369.37" y="120" width="150" height="40" as="geometry" />
        </mxCell>
        <mxCell id="tW3wjYKGY_-DUdyRMUnM-2" value="&lt;span style=&quot;font-size:11.0pt;line-height:&lt;br/&gt;107%;font-family:&amp;quot;Calibri&amp;quot;,sans-serif;mso-ascii-theme-font:minor-latin;&lt;br/&gt;mso-fareast-font-family:Calibri;mso-fareast-theme-font:minor-latin;mso-hansi-theme-font:&lt;br/&gt;minor-latin;mso-bidi-font-family:Arial;mso-bidi-theme-font:minor-bidi;&lt;br/&gt;mso-ansi-language:EN-US;mso-fareast-language:EN-US;mso-bidi-language:AR-SA&quot; lang=&quot;EN-US&quot;&gt;Determining&lt;br/&gt;system requirements&lt;/span&gt;" style="rounded=0;whiteSpace=wrap;html=1;" parent="1" vertex="1">
          <mxGeometry x="117.86000000000001" y="200" width="150" height="40" as="geometry" />
        </mxCell>
        <mxCell id="tW3wjYKGY_-DUdyRMUnM-6" value="Use case diagram" style="shape=parallelogram;perimeter=parallelogramPerimeter;whiteSpace=wrap;html=1;fixedSize=1;" parent="1" vertex="1">
          <mxGeometry x="361.87" y="190" width="165" height="40" as="geometry" />
        </mxCell>
        <mxCell id="tW3wjYKGY_-DUdyRMUnM-8" value="BPMN to be" style="shape=parallelogram;perimeter=parallelogramPerimeter;whiteSpace=wrap;html=1;fixedSize=1;" parent="1" vertex="1">
          <mxGeometry x="361.87" y="324" width="165" height="40" as="geometry" />
        </mxCell>
        <mxCell id="tW3wjYKGY_-DUdyRMUnM-9" value="Designing physical architecture" style="rounded=0;whiteSpace=wrap;html=1;" parent="1" vertex="1">
          <mxGeometry x="369.37" y="390" width="150" height="40" as="geometry" />
        </mxCell>
        <mxCell id="tW3wjYKGY_-DUdyRMUnM-24" style="edgeStyle=orthogonalEdgeStyle;rounded=0;orthogonalLoop=1;jettySize=auto;html=1;exitX=1;exitY=0.5;exitDx=0;exitDy=0;entryX=0;entryY=0.5;entryDx=0;entryDy=0;" parent="1" source="tW3wjYKGY_-DUdyRMUnM-10" target="tW3wjYKGY_-DUdyRMUnM-11" edge="1">
          <mxGeometry relative="1" as="geometry" />
        </mxCell>
        <mxCell id="tW3wjYKGY_-DUdyRMUnM-10" value="Class diagram" style="shape=parallelogram;perimeter=parallelogramPerimeter;whiteSpace=wrap;html=1;fixedSize=1;" parent="1" vertex="1">
          <mxGeometry x="361.87" y="450" width="165" height="40" as="geometry" />
        </mxCell>
        <mxCell id="tW3wjYKGY_-DUdyRMUnM-25" style="edgeStyle=orthogonalEdgeStyle;rounded=0;orthogonalLoop=1;jettySize=auto;html=1;exitX=0.5;exitY=1;exitDx=0;exitDy=0;entryX=0.5;entryY=0;entryDx=0;entryDy=0;" parent="1" source="tW3wjYKGY_-DUdyRMUnM-11" target="tW3wjYKGY_-DUdyRMUnM-12" edge="1">
          <mxGeometry relative="1" as="geometry" />
        </mxCell>
        <mxCell id="tW3wjYKGY_-DUdyRMUnM-11" value="&amp;nbsp;Prototyping" style="rounded=0;whiteSpace=wrap;html=1;" parent="1" vertex="1">
          <mxGeometry x="607.5" y="120" width="150" height="40" as="geometry" />
        </mxCell>
        <mxCell id="tW3wjYKGY_-DUdyRMUnM-26" style="edgeStyle=orthogonalEdgeStyle;rounded=0;orthogonalLoop=1;jettySize=auto;html=1;exitX=0.5;exitY=1;exitDx=0;exitDy=0;entryX=0.5;entryY=0;entryDx=0;entryDy=0;" parent="1" source="tW3wjYKGY_-DUdyRMUnM-12" target="tW3wjYKGY_-DUdyRMUnM-13" edge="1">
          <mxGeometry relative="1" as="geometry" />
        </mxCell>
        <mxCell id="tW3wjYKGY_-DUdyRMUnM-12" value="System prototype" style="shape=parallelogram;perimeter=parallelogramPerimeter;whiteSpace=wrap;html=1;fixedSize=1;" parent="1" vertex="1">
          <mxGeometry x="600" y="180" width="165" height="40" as="geometry" />
        </mxCell>
        <mxCell id="tW3wjYKGY_-DUdyRMUnM-13" value="Testing" style="rounded=0;whiteSpace=wrap;html=1;" parent="1" vertex="1">
          <mxGeometry x="607.5" y="240" width="150" height="40" as="geometry" />
        </mxCell>
        <mxCell id="tW3wjYKGY_-DUdyRMUnM-28" style="edgeStyle=orthogonalEdgeStyle;rounded=0;orthogonalLoop=1;jettySize=auto;html=1;exitX=0.5;exitY=1;exitDx=0;exitDy=0;entryX=0.5;entryY=0;entryDx=0;entryDy=0;" parent="1" source="tW3wjYKGY_-DUdyRMUnM-14" target="5jKje8F0iwKBfb8MLztT-16" edge="1">
          <mxGeometry relative="1" as="geometry" />
        </mxCell>
        <mxCell id="tW3wjYKGY_-DUdyRMUnM-14" value="System evaluation results" style="shape=parallelogram;perimeter=parallelogramPerimeter;whiteSpace=wrap;html=1;fixedSize=1;" parent="1" vertex="1">
          <mxGeometry x="600" y="360" width="165" height="40" as="geometry" />
        </mxCell>
        <mxCell id="YmFkH0KrsYM-fxtj9EKp-1" value="&lt;span lang=&quot;EN-US&quot;&gt;Structuring&lt;br&gt;system Process requirements&lt;/span&gt;" style="rounded=0;whiteSpace=wrap;html=1;" vertex="1" parent="1">
          <mxGeometry x="117.87000000000002" y="266" width="150" height="40" as="geometry" />
        </mxCell>
        <mxCell id="YmFkH0KrsYM-fxtj9EKp-2" value="&lt;div&gt;&lt;br&gt;&lt;/div&gt;&lt;div&gt;Requirements documents, BPMN As is&lt;/div&gt;&lt;div&gt;&lt;br&gt;&lt;/div&gt;" style="shape=parallelogram;perimeter=parallelogramPerimeter;whiteSpace=wrap;html=1;fixedSize=1;" vertex="1" parent="1">
          <mxGeometry x="110.37" y="330" width="165" height="44" as="geometry" />
        </mxCell>
        <mxCell id="YmFkH0KrsYM-fxtj9EKp-3" value="Designing logical architecture&amp;nbsp;" style="rounded=0;whiteSpace=wrap;html=1;" vertex="1" parent="1">
          <mxGeometry x="369.37" y="260" width="150" height="40" as="geometry" />
        </mxCell>
        <mxCell id="YmFkH0KrsYM-fxtj9EKp-6" value="Verification and validation" style="rounded=0;whiteSpace=wrap;html=1;" vertex="1" parent="1">
          <mxGeometry x="607.5" y="300" width="150" height="40" as="geometry" />
        </mxCell>
      </root>
    </mxGraphModel>
  </diagram>
</mxfile>
